<?xml version="1.0"?>
<svg xmlns="http://www.w3.org/2000/svg" xmlns:xlink="http://www.w3.org/1999/xlink" version="1.1" id="Capa_1" x="0px" y="0px" viewBox="0 0 512 512" style="enable-background:new 0 0 512 512;" xml:space="preserve" width="512px" height="512px" class=""><g><link xmlns="" type="text/css" rel="stylesheet" id="dark-mode-general-link"/><link xmlns="" type="text/css" rel="stylesheet" id="dark-mode-custom-link"/><style xmlns="" type="text/css" id="dark-mode-custom-style"/><circle style="fill:#FFD400;" cx="256" cy="256" r="256" data-original="#FFD400" class=""/><path style="fill:#FF9F00;" d="M512,256c0-7.313-0.324-14.548-0.925-21.706L394.89,118.11L118.11,394.89l116.185,116.185  C241.452,511.676,248.688,512,256,512C397.385,512,512,397.385,512,256z" data-original="#FF9F00" class=""/><path style="fill:#77DD00;" d="M256,60C148.277,60,60,148.277,60,256s88.277,196,196,196s196-88.277,196-196S363.723,60,256,60z" data-original="#77DD00" class=""/><path style="fill:#66BB00;" d="M452,256c0,107.723-88.277,196-196,196V60C363.723,60,452,148.277,452,256z" data-original="#66BB00" class=""/><polygon style="fill:#E7E7E7;" points="367.628,222.695 233.031,357.292 136.332,260.823 168.949,228.207 233.031,292.52   256,269.551 335.242,190.31 " data-original="#E7E7E7" class=""/><polygon style="fill:#D3D3D8;" points="367.628,222.695 256,334.323 256,269.551 335.242,190.31 " data-original="#D3D3D8" class="active-path"/></g> </svg>
